<?xml version="1.0" encoding="UTF-8" standalone="no"?>
<!-- Created with Inkscape (http://www.inkscape.org/) -->

<svg
   xmlns:osb="http://www.openswatchbook.org/uri/2009/osb"
   xmlns:dc="http://purl.org/dc/elements/1.1/"
   xmlns:cc="http://creativecommons.org/ns#"
   xmlns:rdf="http://www.w3.org/1999/02/22-rdf-syntax-ns#"
   xmlns:svg="http://www.w3.org/2000/svg"
   xmlns="http://www.w3.org/2000/svg"
   xmlns:sodipodi="http://sodipodi.sourceforge.net/DTD/sodipodi-0.dtd"
   xmlns:inkscape="http://www.inkscape.org/namespaces/inkscape"
   version="1.1"
   id="svg2"
   xml:space="preserve"
   width="2560"
   height="1440"
   viewBox="0 0 2560 1440"
   sodipodi:docname="pulse122_logo.svg"
   inkscape:version="0.92.1 r15371"><metadata
     id="metadata8"><rdf:RDF><cc:Work
         rdf:about=""><dc:format>image/svg+xml</dc:format><dc:type
           rdf:resource="http://purl.org/dc/dcmitype/StillImage" /><dc:title></dc:title></cc:Work></rdf:RDF></metadata><defs
     id="defs6"><linearGradient
       id="linearGradient6001"
       osb:paint="solid"><stop
         style="stop-color:#000000;stop-opacity:1;"
         offset="0"
         id="stop5999" /></linearGradient><linearGradient
       id="linearGradient5995"
       osb:paint="solid"><stop
         style="stop-color:#000000;stop-opacity:1;"
         offset="0"
         id="stop5993" /></linearGradient><clipPath
       clipPathUnits="userSpaceOnUse"
       id="clipPath18"><path
         d="M 0,1080 H 1920 V 0 H 0 Z"
         id="path16"
         inkscape:connector-curvature="0" /></clipPath></defs><sodipodi:namedview
     pagecolor="#ffffff"
     bordercolor="#666666"
     borderopacity="1"
     objecttolerance="10"
     gridtolerance="10"
     guidetolerance="10"
     inkscape:pageopacity="0"
     inkscape:pageshadow="2"
     inkscape:window-width="1366"
     inkscape:window-height="704"
     id="namedview4"
     showgrid="true"
     showguides="false"
     inkscape:zoom="0.3046875"
     inkscape:cx="1547.7811"
     inkscape:cy="1087.9361"
     inkscape:window-x="0"
     inkscape:window-y="27"
     inkscape:window-maximized="1"
     inkscape:current-layer="g10"><inkscape:grid
       type="xygrid"
       id="grid6012" /></sodipodi:namedview><g
     id="g10"
     inkscape:groupmode="layer"
     inkscape:label="pulse122_logo_for_c4d"
     transform="matrix(1.3333333,0,0,-1.3333333,0,1440)"><rect
       style="fill-opacity:1;fill-rule:evenodd;stroke-width:0.23281676"
       id="rect6005"
       width="630.00006"
       height="120.00002"
       x="660"
       y="-630"
       transform="scale(1,-1)" /><g
       id="g12"><g
         id="g14"
         clip-path="url(#clipPath18)"><g
           id="g20"
           transform="translate(669.1118,549.1016)"><path
             d="m 0,0 c 0,8.4 2.472,14.77 7.42,19.11 4.946,4.34 11.666,6.51 20.16,6.51 h 18.48 c 2.892,0 5.296,1.002 7.21,3.01 1.912,2.006 2.87,4.456 2.87,7.35 0,2.706 -0.98,5.086 -2.94,7.14 -1.96,2.052 -4.294,3.08 -7,3.08 H 0 v 15.4 h 43.82 c 4.852,0 9.03,-0.678 12.53,-2.03 3.5,-1.354 6.37,-3.22 8.61,-5.6 2.24,-2.38 3.896,-5.134 4.97,-8.26 1.072,-3.128 1.61,-6.464 1.61,-10.01 0,-3.08 -0.49,-6.138 -1.47,-9.17 C 69.09,23.496 67.48,20.766 65.24,18.34 63,15.912 60.13,13.952 56.63,12.46 53.13,10.967 48.86,10.221 43.82,10.221 H 24.92 C 22.212,10.221 19.95,9.17 18.13,7.07 16.31,4.971 15.4,2.52 15.4,-0.279 V -26.32 H 0 Z"
             style="fill:#ffffff;fill-opacity:1;fill-rule:nonzero;stroke:none"
             id="path22"
             inkscape:connector-curvature="0" /></g><g
           id="g24"
           transform="translate(825.7715,556.1016)"><path
             d="m 0,0 c 0,-5.04 -0.77,-9.59 -2.31,-13.65 -1.54,-4.06 -3.828,-7.56 -6.86,-10.5 -3.034,-2.94 -6.86,-5.204 -11.48,-6.789 -4.62,-1.588 -10.01,-2.381 -16.17,-2.381 -5.974,0 -11.27,0.816 -15.89,2.451 -4.62,1.631 -8.494,3.894 -11.62,6.789 -3.128,2.892 -5.508,6.37 -7.14,10.43 -1.634,4.06 -2.45,8.562 -2.45,13.51 V 54.6 h 15.4 V 0.141 c 0,-5.321 1.936,-9.661 5.81,-13.021 3.872,-3.36 9.216,-5.04 16.03,-5.04 h 0.42 c 7,0 12.226,1.68 15.68,5.04 3.452,3.36 5.18,7.7 5.18,13.021 l 0,54.459 H 0 Z"
             style="fill:#ffffff;fill-opacity:1;fill-rule:nonzero;stroke:none"
             id="path26"
             inkscape:connector-curvature="0" /></g><g
           id="g28"
           transform="translate(877.1509,522.7813)"><path
             d="m 0,0 c -6.44,0 -12.088,0.887 -16.94,2.66 -4.854,1.772 -8.89,4.317 -12.11,7.631 -3.22,3.312 -5.648,7.301 -7.28,11.969 -1.634,4.666 -2.45,9.941 -2.45,15.82 v 49.84 h 15.4 V 37.94 c 0,-7.094 2.006,-12.624 6.02,-16.589 4.012,-3.968 9.66,-5.951 16.94,-5.951 h 26.74 l 0,-15.4 z"
             style="fill:#ffffff;fill-opacity:1;fill-rule:nonzero;stroke:none"
             id="path30"
             inkscape:connector-curvature="0" /></g><g
           id="g32"
           transform="translate(990.6904,548.541)"><path
             d="m 0,0 c 0,-8.493 -2.45,-14.909 -7.35,-19.25 -4.9,-4.34 -11.738,-6.51 -20.51,-6.51 h -45.08 v 15.401 h 48.02 c 2.706,0 4.97,1.025 6.79,3.08 1.82,2.051 2.731,4.572 2.731,7.56 0,2.799 -0.911,5.25 -2.731,7.35 -1.82,2.099 -4.084,3.15 -6.79,3.15 H -49.7 c -5.134,0 -9.45,0.77 -12.95,2.31 -3.5,1.54 -6.348,3.522 -8.54,5.95 -2.194,2.426 -3.78,5.156 -4.76,8.19 -0.98,3.032 -1.47,6.041 -1.47,9.03 0,3.546 0.512,6.882 1.54,10.01 1.026,3.125 2.66,5.88 4.9,8.26 2.24,2.38 5.11,4.246 8.61,5.6 3.5,1.351 7.722,2.03 12.67,2.03 h 43.82 v -15.4 h -46.2 c -2.708,0 -5.04,-1.029 -7,-3.08 -1.96,-2.055 -2.94,-4.434 -2.94,-7.14 0,-2.895 0.956,-5.344 2.87,-7.35 1.912,-2.008 4.316,-3.01 7.21,-3.01 h 24.361 c 8.491,0 15.211,-2.17 20.159,-6.51 C -2.474,15.33 0,8.961 0,0.561 Z"
             style="fill:#ffffff;fill-opacity:1;fill-rule:nonzero;stroke:none"
             id="path34"
             inkscape:connector-curvature="0" /></g><g
           id="g36"
           transform="translate(1072.1699,595.3018)"><path
             d="m 0,0 h -46.2 c -2.708,0 -5.04,-1.028 -7,-3.08 -1.96,-2.054 -2.941,-4.434 -2.941,-7.14 0,-2.894 0.932,-5.344 2.801,-7.35 1.865,-2.008 4.291,-3.01 7.279,-3.01 H 0 v -15.399 h -46.2 c -2.708,0 -5.04,-1.03 -7,-3.081 -1.96,-2.054 -2.941,-4.434 -2.941,-7.14 0,-3.268 0.932,-5.904 2.801,-7.91 1.865,-2.008 4.291,-3.01 7.279,-3.01 H 0 v -15.401 h -43.82 c -5.135,0 -9.451,0.747 -12.951,2.241 -3.5,1.492 -6.348,3.476 -8.54,5.95 -2.193,2.472 -3.779,5.25 -4.759,8.33 -0.981,3.08 -1.471,6.252 -1.471,9.521 0,3.451 0.746,6.835 2.24,10.149 1.492,3.311 3.92,5.996 7.28,8.05 -3.454,2.052 -5.903,4.76 -7.35,8.12 -1.447,3.36 -2.17,6.58 -2.17,9.66 0,3.732 0.561,7.186 1.681,10.36 1.12,3.172 2.799,5.926 5.04,8.26 2.24,2.332 5.109,4.13 8.609,5.39 3.5,1.26 7.631,1.89 12.391,1.89 L 0,15.4 Z"
             style="fill:#ffffff;fill-opacity:1;fill-rule:nonzero;stroke:none"
             id="path38"
             inkscape:connector-curvature="0" /></g><g
           id="g40"
           transform="translate(1071.9678,610.7017)"><path
             d="m 0,0 c 3.826,0 7.63,-0.63 11.41,-1.89 3.78,-1.26 7.14,-3.15 10.08,-5.67 2.941,-2.52 5.32,-5.624 7.14,-9.31 1.82,-3.688 2.73,-7.958 2.73,-12.81 v -58.24 h -15.4 v 58.38 c 0,4.76 -1.54,8.306 -4.62,10.64 -3.08,2.332 -6.861,3.5 -11.34,3.5 z"
             style="fill:#ffffff;fill-opacity:1;fill-rule:nonzero;stroke:none"
             id="path42"
             inkscape:connector-curvature="0" /></g><g
           id="g44"
           transform="translate(1178.707,610.7017)"><path
             d="m 0,0 v -15.4 h -44.66 c -2.147,0 -3.616,-0.444 -4.41,-1.33 -0.792,-0.888 -1.19,-1.984 -1.19,-3.29 0,-1.214 0.42,-2.428 1.26,-3.64 0.84,-1.214 2.054,-2.194 3.64,-2.94 l 48.44,-21 c 2.988,-1.309 5.414,-2.824 7.279,-4.55 1.87,-1.727 3.315,-3.5 4.34,-5.319 1.03,-1.821 1.705,-3.619 2.031,-5.391 0.329,-1.773 0.49,-3.408 0.49,-4.9 v -20.16 h -80.64 v 15.4 H 1.82 v 4.62 c 0,1.4 -0.466,2.682 -1.4,3.851 -0.932,1.166 -2.147,2.075 -3.641,2.729 l -48.16,21 c -5.131,2.146 -8.771,4.97 -10.92,8.47 -2.145,3.5 -3.219,7.396 -3.219,11.69 0,5.972 1.774,10.826 5.32,14.56 3.548,3.732 8.868,5.6 15.96,5.6"
             style="fill:#ffffff;fill-opacity:1;fill-rule:nonzero;stroke:none"
             id="path46"
             inkscape:connector-curvature="0" /></g><g
           id="g48"
           transform="translate(1257.9082,610.7017)"><path
             d="m 0,0 c 7.092,0 12.412,-1.868 15.96,-5.6 3.546,-3.734 5.319,-8.588 5.319,-14.56 0,-4.294 -1.073,-8.19 -3.218,-11.69 -2.149,-3.5 -5.79,-6.324 -10.92,-8.47 l -48.161,-21 c -1.494,-0.654 -2.709,-1.563 -3.64,-2.729 -0.934,-1.169 -1.401,-2.451 -1.401,-3.851 v -4.62 H 19.18 v -15.4 h -80.64 v 20.16 c 0,1.492 0.161,3.127 0.489,4.9 0.326,1.772 1.002,3.57 2.032,5.391 1.025,1.819 2.47,3.592 4.339,5.319 1.866,1.726 4.291,3.241 7.28,4.55 l 48.44,21 c 1.586,0.746 2.8,1.726 3.64,2.94 0.84,1.212 1.26,2.426 1.26,3.64 0,1.306 -0.398,2.402 -1.19,3.29 -0.794,0.886 -2.264,1.33 -4.41,1.33 H -44.24 V 0 Z"
             style="fill:#ffffff;fill-opacity:1;fill-rule:nonzero;stroke:none"
             id="path50"
             inkscape:connector-curvature="0" /></g><g
           id="g52"
           transform="translate(1176.7031,595.3018)"><path
             d="M 0,0 H 1.34 V 15.4 H -0.42 C 6.672,15.4 11.992,13.532 15.54,9.8 18.011,7.198 19.797,3.765 19.797,0"
             style="fill:#ffffff;fill-opacity:1;fill-rule:nonzero;stroke:none"
             id="path54"
             inkscape:connector-curvature="0" /></g><g
           id="g56"
           transform="translate(1195.8916,595.3018)"><path
             d="m 0,0 c 0,3.765 1.786,7.198 4.257,9.8 3.548,3.732 8.868,5.6 15.96,5.6 h -1.76 V 0 h 1.34"
             style="fill:#ffffff;fill-opacity:1;fill-rule:nonzero;stroke:none"
             id="path58"
             inkscape:connector-curvature="0" /></g></g></g></g></svg>